<svg xmlns="http://www.w3.org/2000/svg" viewBox="0 0 64 64" fill="none">
  <rect width="64" height="64" rx="16" fill="#7c3aed"/>
  <path d="M32 10 C32 10 30 18 30 26 L30 38 C30 40 31 41 32 41 C33 41 34 40 34 38 L34 26 C34 18 32 10 32 10Z" fill="#fff"/>
  <circle cx="32" cy="14" r="2" fill="#7c3aed"/>
  <path d="M32 41 Q28 44 24 48 Q20 52 22 54 Q24 56 28 53 Q32 50 32 48" stroke="#f9a8d4" stroke-width="2" fill="none" stroke-linecap="round"/>
  <path d="M32 48 Q32 50 36 53 Q40 56 42 54 Q44 52 40 48 Q36 44 32 41" stroke="#f9a8d4" stroke-width="2" fill="none" stroke-linecap="round"/>
  <circle cx="32" cy="44" r="1.5" fill="#f9a8d4"/>
</svg>
